HIERARCHY
ROOT Hips
{
 OFFSET 0.000000 0.000000 0.000000
 CHANNELS 6 Xposition Yposition Zposition Yrotation Xrotation Zrotation
 JOINT Chest
 {
  OFFSET 0.000000 9.585900 0.002600
  CHANNELS 3 Yrotation Xrotation Zrotation
  JOINT Chest2
  {
   OFFSET 0.000000 9.601200 -0.005300
   CHANNELS 3 Yrotation Xrotation Zrotation
   JOINT Chest3
   {
    OFFSET 0.000000 9.561800 0.000000
    CHANNELS 3 Yrotation Xrotation Zrotation
    JOINT Chest4
    {
     OFFSET 0.000000 9.552100 0.000000
     CHANNELS 3 Yrotation Xrotation Zrotation
     JOINT Neck
     {
      OFFSET 0.000000 14.453000 0.000000
      CHANNELS 3 Yrotation Xrotation Zrotation
      JOINT Head
      {
       OFFSET 0.000000 8.936500 -0.011300
       CHANNELS 3 Yrotation Xrotation Zrotation
       End Site
       {
        OFFSET 0.000000 17.073600 -0.006000
       }
      }
     }
     JOINT RightCollar
     {
      OFFSET -2.921100 9.558500 0.000000
      CHANNELS 3 Yrotation Xrotation Zrotation
      JOINT RightShoulder
      {
       OFFSET -13.519700 0.000000 0.000000
       CHANNELS 3 Yrotation Xrotation Zrotation
       JOINT RightElbow
       {
        OFFSET 0.000000 -29.696600 0.000000
        CHANNELS 3 Yrotation Xrotation Zrotation
        JOINT RightWrist
        {
         OFFSET 0.000000 -24.004700 0.000000
         CHANNELS 3 Yrotation Xrotation Zrotation
         End Site
         {
          OFFSET 0.000000 -17.728500 0.000000
         }
        }
       }
      }
     }
     JOINT LeftCollar
     {
      OFFSET 2.921100 9.558500 0.000000
      CHANNELS 3 Yrotation Xrotation Zrotation
      JOINT LeftShoulder
      {
       OFFSET 13.519700 0.000000 0.000000
       CHANNELS 3 Yrotation Xrotation Zrotation
       JOINT LeftElbow
       {
        OFFSET 0.000000 -29.696600 0.000000
        CHANNELS 3 Yrotation Xrotation Zrotation
        JOINT LeftWrist
        {
         OFFSET 0.000000 -24.004700 0.000000
         CHANNELS 3 Yrotation Xrotation Zrotation
         End Site
         {
          OFFSET 0.000000 -17.728500 0.000000
         }
        }
       }
      }
     }
    }
   }
  }
 }
 JOINT RightHip
 {
  OFFSET -7.771700 -0.012900 -0.001300
  CHANNELS 3 Yrotation Xrotation Zrotation
  JOINT RightKnee
  {
   OFFSET 0.000000 -40.869800 0.001200
   CHANNELS 3 Yrotation Xrotation Zrotation
   JOINT RightAnkle
   {
    OFFSET 0.000000 -39.717900 0.002100
    CHANNELS 3 Yrotation Xrotation Zrotation
    JOINT RightToe
    {
     OFFSET 0.000000 -4.965400 11.033500
     CHANNELS 3 Yrotation Xrotation Zrotation
     End Site
     {
      OFFSET 0.000000 -1.423100 5.872300
     }
    }
   }
  }
 }
 JOINT LeftHip
 {
  OFFSET 7.771700 -0.012900 -0.001300
  CHANNELS 3 Yrotation Xrotation Zrotation
  JOINT LeftKnee
  {
   OFFSET 0.000000 -40.869800 0.001200
   CHANNELS 3 Yrotation Xrotation Zrotation
   JOINT LeftAnkle
   {
    OFFSET 0.000000 -39.717900 0.002100
    CHANNELS 3 Yrotation Xrotation Zrotation
    JOINT LeftToe
    {
     OFFSET 0.000000 -4.965400 11.033500
     CHANNELS 3 Yrotation Xrotation Zrotation
     End Site
     {
      OFFSET 0.000000 -1.423100 5.872300
     }
    }
   }
  }
 }
}
MOTION
Frames: 12
Frame Time: 0.008333
0.000000 85.388000 0.000000 0.000000 -5.767877 0.000000 0.000000 11.653817 0.000000 0.000000 -5.885947 0.000000 0.000000 -0.000000 0.000000 0.000000 -0.000000 0.000000 0.000000 12.528835 0.000000 0.000000 0.711642 0.000000 0.000000 -0.000000 0.000000 0.000000 0.000000 -90.000000 0.000000 -2.309062 0.000000 0.000000 2.309062 0.000000 0.000000 -0.000000 0.000000 0.000000 -0.000000 90.000000 0.000000 -2.309062 0.000000 0.000000 2.309062 0.000000 0.000000 8.520406 0.000000 0.000000 1.905762 0.000000 -0.000000 -4.658285 0.000000 0.000000 -0.000000 0.000000 0.000000 8.520406 0.000000 0.000000 1.905762 0.000000 -0.000000 -4.658285 0.000000 0.000000 -0.000000 0.000000
25.142177 49.911329 60.110443 174.078254 -31.013276 -6.577974 6.934511 20.879339 7.139189 0.848924 2.993380 0.729451 1.396379 4.845004 1.205693 5.810496 17.701622 5.171944 -4.347051 15.339156 0.122637 -8.160164 -7.182932 1.820559 -2.209754 -3.515536 -6.564352 5.481598 -11.449596 -7.290581 -132.627489 -53.279366 140.348072 -7.527052 -3.856178 42.719559 -12.822266 -1.222022 -0.431450 3.061269 -16.090046 3.262846 124.535353 -58.531350 -138.042329 40.397746 1.441409 -21.857043 -2.780916 -49.245488 10.328771 -122.457076 83.869238 -110.144577 -1.330738 -13.621253 -5.452256 -0.314013 0.857380 -0.126952 -8.816824 -53.393022 15.983776 -145.812387 80.313634 -154.057776 1.268015 -17.081172 9.174419 -0.243792 -0.786562 -0.109821
25.144169 49.915889 60.107959 174.089720 -31.150238 -6.592691 7.072829 21.155274 7.251043 0.877361 3.085527 0.751271 1.441333 4.985645 1.240367 5.902882 17.912586 5.241222 -4.381956 15.240984 0.161558 -8.244566 -7.360229 1.912508 -2.143412 -3.465140 -6.407886 5.461237 -11.558090 -7.305250 -133.327197 -53.762141 140.508445 -7.100867 -3.522732 40.916484 -13.071273 -1.199827 -0.368481 2.752098 -16.407356 3.120677 125.345836 -58.888603 -138.106479 40.130445 0.490458 -19.737840 -2.751131 -49.105709 10.322481 -122.438366 83.874545 -110.124005 -1.277906 -13.616380 -5.458687 -0.257646 0.842112 -0.118568 -8.765513 -53.258841 15.933844 -145.914945 80.320269 -154.133573 1.260708 -17.078012 9.162628 -0.245277 -0.794628 -0.107155
25.146651 49.920614 60.105306 174.095456 -31.312166 -6.608507 7.220030 21.434264 7.369332 0.907365 3.179743 0.773862 1.488648 5.128980 1.276304 6.000460 18.122213 5.312967 -4.411279 15.159527 0.216840 -8.323985 -7.505612 2.031907 -2.102811 -3.382330 -6.237467 5.473774 -11.684527 -7.317646 -133.962226 -54.263360 140.582730 -6.558918 -3.092725 39.158594 -13.320719 -1.188055 -0.319955 2.452674 -16.697048 2.987540 126.337453 -59.317516 -138.327154 39.764224 -0.365533 -17.672499 -2.712589 -48.942755 10.319368 -122.408455 83.881292 -110.088345 -1.238614 -13.607742 -5.461407 -0.249645 0.832183 -0.112774 -8.708543 -53.099316 15.881149 -146.032320 80.327345 -154.225835 1.276234 -17.079568 9.147047 -0.263058 -0.801965 -0.106743
25.149167 49.925507 60.101790 174.090554 -31.500056 -6.619408 7.374087 21.715573 7.489402 0.938035 3.274336 0.796713 1.536865 5.272563 1.312662 6.099107 18.327490 5.385041 -4.434792 15.100592 0.286414 -8.396833 -7.608346 2.174492 -2.073680 -3.266925 -6.073893 5.520961 -11.819265 -7.306610 -134.583595 -54.807904 140.606254 -5.913545 -2.561106 37.437455 -13.562420 -1.178784 -0.291262 2.168508 -16.962260 2.868484 127.576243 -59.857504 -138.751302 39.308531 -1.078847 -15.677413 -2.656197 -48.755933 10.313464 -122.357736 83.885336 -110.026724 -1.222475 -13.602325 -5.450931 -0.252932 0.824047 -0.115852 -8.646059 -52.913078 15.831388 -146.132772 80.328437 -154.301315 1.277367 -17.081957 9.128364 -0.233241 -0.810864 -0.103990
25.152048 49.929398 60.099151 174.081450 -31.697294 -6.630878 7.525085 21.987028 7.611695 0.968149 3.366865 0.819179 1.584192 5.412661 1.348343 6.194411 18.523764 5.454808 -4.453179 15.064359 0.366516 -8.462849 -7.668362 2.333412 -2.036361 -3.128463 -5.933144 5.597908 -11.947551 -7.260823 -135.282463 -55.431591 140.649634 -5.180870 -1.928045 35.733927 -13.787774 -1.166234 -0.286285 1.904313 -17.207237 2.762762 129.064334 -60.528183 -139.375970 38.783211 -1.628454 -13.826114 -2.592211 -48.561291 10.307774 -122.278567 83.886211 -109.934418 -1.209301 -13.598524 -5.432631 -0.238595 0.820489 -0.123294 -8.593328 -52.717073 15.797962 -146.148906 80.321476 -154.298832 1.275110 -17.082696 9.109763 -0.223052 -0.818553 -0.099455
25.157881 49.932431 60.098058 174.062868 -31.898828 -6.654830 7.680438 22.248701 7.750390 0.997004 3.455532 0.840915 1.629448 5.546545 1.382799 6.283863 18.707811 5.521450 -4.467805 15.046504 0.452944 -8.523142 -7.693915 2.501558 -1.977593 -2.988675 -5.818547 5.704872 -12.051826 -7.182475 -136.209171 -56.190787 140.833339 -4.402411 -1.197768 34.029100 -13.994992 -1.154274 -0.307898 1.661525 -17.431888 2.672820 130.698835 -61.303338 -140.121752 38.196631 -2.027445 -12.240730 -2.532639 -48.363035 10.323297 -122.155192 83.886399 -109.799061 -1.163378 -13.589540 -5.419722 -0.295736 0.818658 -0.127458 -8.562265 -52.518165 15.782265 -146.061910 80.300499 -154.175502 1.305965 -17.091716 9.064353 -0.209632 -0.818822 -0.091299
25.160719 49.932417 60.100714 174.042567 -32.078267 -6.660220 7.814313 22.486799 7.862698 1.024247 3.538826 0.861214 1.672130 5.672042 1.414913 6.366739 18.877538 5.582378 -4.480276 15.041660 0.542469 -8.579841 -7.695079 2.673725 -1.899328 -2.860090 -5.718923 5.842121 -12.127744 -7.085930 -137.518579 -57.141233 141.302856 -3.634571 -0.383915 32.291586 -14.182448 -1.149703 -0.350157 1.440143 -17.633374 2.599411 132.340979 -62.112771 -140.882845 37.555047 -2.283336 -11.048545 -2.464212 -48.189116 10.322698 -121.993221 83.884311 -109.629772 -1.153510 -13.592948 -5.392599 -0.343777 0.829923 -0.138611 -8.528721 -52.343483 15.764782 -146.007291 80.289041 -154.113643 1.331602 -17.088993 9.050061 -0.206440 -0.824640 -0.095464
25.160279 49.930569 60.106096 174.012670 -32.240671 -6.640478 7.935981 22.706766 7.946409 1.049143 3.615161 0.879184 1.711135 5.786830 1.443369 6.440886 19.031090 5.634206 -4.492444 15.044978 0.631649 -8.635373 -7.681117 2.844399 -1.809307 -2.740691 -5.619108 5.999417 -12.183958 -6.987566 -139.305102 -58.293794 142.176448 -2.896140 0.497897 30.471585 -14.344009 -1.150521 -0.404252 1.241979 -17.806805 2.539700 133.885056 -62.886012 -141.582955 36.888743 -2.411329 -10.318547 -2.395215 -48.034849 10.308699 -121.845475 83.885562 -109.491813 -1.155418 -13.598859 -5.357531 -0.330869 0.847698 -0.155491 -8.480172 -52.186609 15.730375 -146.017591 80.289314 -154.133017 1.341483 -17.081260 9.061372 -0.218037 -0.829938 -0.110843
25.163119 49.929604 60.113463 174.012283 -32.393483 -6.656443 8.002833 22.884951 8.017550 1.092973 3.715581 0.910488 1.745549 5.888917 1.467761 6.504968 19.166489 5.676692 -4.504497 15.054140 0.717728 -8.689122 -7.656486 3.008782 -1.713166 -2.627979 -5.511889 6.163142 -12.228807 -6.896873 -141.545568 -59.590543 143.478207 -2.142180 1.446726 28.548734 -14.475205 -1.147795 -0.464459 1.074861 -17.949715 2.489673 135.252180 -63.579591 -142.168352 36.247134 -2.446509 -10.014880 -2.331054 -47.885711 10.298232 -121.677632 83.880851 -109.302307 -1.141572 -13.610884 -5.352448 -0.323692 0.871743 -0.147927 -8.516207 -52.041899 15.737354 -145.968094 80.278072 -154.091642 1.400651 -17.059776 9.041385 -0.229920 -0.847150 -0.122921
25.166045 49.926304 60.128694 174.023312 -32.492525 -6.685451 8.051473 23.008817 8.086136 1.125048 3.805868 0.934944 1.775512 5.977820 1.488637 6.559796 19.283194 5.711990 -4.514644 15.071750 0.800589 -8.737507 -7.616390 3.165859 -1.619905 -2.519631 -5.399368 6.324872 -12.270654 -6.817222 -144.110473 -60.937313 145.132332 -1.319755 2.469010 26.560437 -14.575170 -1.133678 -0.521323 0.952864 -18.065908 2.435413 136.393218 -64.182615 -142.616323 35.698279 -2.420290 -10.013851 -2.232038 -47.795377 10.288179 -121.280822 83.857756 -108.864452 -1.175739 -13.633847 -5.311283 -0.286235 0.917918 -0.145083 -8.547644 -51.953317 15.743409 -145.878586 80.279349 -153.980988 1.436189 -17.046067 9.006736 -0.222010 -0.837364 -0.119036
25.162865 49.924934 60.144427 174.019669 -32.584839 -6.674824 8.114630 23.161153 8.136989 1.132336 3.846369 0.938929 1.801074 6.055005 1.506728 6.605259 19.383813 5.741921 -4.520722 15.103169 0.880187 -8.776072 -7.551166 3.314184 -1.539232 -2.411257 -5.286695 6.489898 -12.320520 -6.745614 -146.846685 -62.270304 147.015605 -0.438244 3.550958 24.577453 -14.642427 -1.098453 -0.565858 0.888566 -18.166112 2.361797 137.268805 -64.704299 -142.917461 35.283505 -2.360138 -10.153553 -2.151244 -47.712635 10.267616 -120.926949 83.838856 -108.508604 -1.228309 -13.643412 -5.251416 -0.361875 0.938115 -0.162300 -8.515834 -51.874258 15.688937 -145.954249 80.303635 -154.034238 1.440099 -17.021393 8.980056 -0.213794 -0.836411 -0.118283
